<?xml version="1.1" encoding="UTF-8"?>
<svg width="1e3" height="1e3" viewBox="-1 -1 2 2" xmlns="http://www.w3.org/2000/svg">
  <g transform="scale(1,-1)" >
    <rect x="-1" y="-1" width="2" height="2" fill="#aaa" />
    <circle r=".1" fill="green"/>
    <circle r=".1" fill="blue" cx=".5" cy=".5" />
    <text x="-100" y="0" transform="scale(.01,-.01)">hello</text>
    <g transform="translate(-.5,.5)scale(.25)">
      <rect x="-1" y="-1" width="2" height="2" fill="#bbb" />
      <circle r=".1" fill="green"/>
      <circle r=".1" fill="blue" cx=".5" cy=".5" />
      <text x="-100" y="0" transform="scale(.01,-.01)">hello</text>
      <g transform="translate(-.5,.5)scale(.25)">
        <rect x="-1" y="-1" width="2" height="2" fill="#ccc" />
        <circle r=".1" fill="green"/>
        <circle r=".1" fill="blue" cx=".5" cy=".5" />
        <text x="-100" y="0" transform="scale(.01,-.01)">hello</text>
        <g transform="translate(-.5,.5)scale(.25)">
          <rect x="-1" y="-1" width="2" height="2" fill="#abc" />
          <circle r=".1" fill="green"/>
          <circle r=".1" fill="blue" cx=".5" cy=".5" />
          <text x="-100" y="0" transform="scale(.01,-.01)">hello</text>
        </g>
      </g>
      <g transform="translate(-.5,-.5)scale(.25)">
        <rect x="-1" y="-1" width="2" height="2" fill="#ddd" />
        <circle r=".1" fill="green"/>
        <circle r=".1" fill="blue" cx=".5" cy=".5" />
        <text x="-100" y="0" transform="scale(.01,-.01)">hello</text>
      </g>
    </g>
    <g transform="translate(-.5,-.5)scale(.25)">
      <rect x="-1" y="-1" width="2" height="2" fill="#eee" />
      <circle r=".1" fill="green"/>
      <circle r=".1" fill="blue" cx=".5" cy=".5" />
      <text x="-100" y="0" transform="scale(.01,-.01)">hello</text>
    </g>
  </g>
</svg>
