<?xml version="1.0" encoding="UTF-8" standalone="no"?><!DOCTYPE svg PUBLIC "-//W3C//DTD SVG 1.1//EN" "http://www.w3.org/Graphics/SVG/1.1/DTD/svg11.dtd"><svg width="100%" height="100%" viewBox="0 0 249 328" version="1.1" xmlns="http://www.w3.org/2000/svg" xmlns:xlink="http://www.w3.org/1999/xlink" xml:space="preserve" xmlns:serif="http://www.serif.com/" style="fill-rule:evenodd;clip-rule:evenodd;stroke-linejoin:round;stroke-miterlimit:2;"><rect x="0" y="81.786" width="76.792" height="76.792" style="fill:#ebebeb;"/><rect x="85.831" y="82.231" width="76.792" height="76.792" style="fill:#ebebeb;"/><rect x="171.646" y="81.786" width="76.792" height="76.792" style="fill:#ebebeb;"/><rect x="0" y="166.054" width="76.792" height="76.792" style="fill:#ebebeb;"/><rect x="85.831" y="166.498" width="76.792" height="76.792" style="fill:#ebebeb;"/><rect x="171.646" y="166.054" width="76.792" height="76.792" style="fill:#ebebeb;"/><rect x="0" y="250.253" width="76.792" height="76.792" style="fill:#ebebeb;"/><rect x="85.831" y="250.698" width="76.792" height="76.792" style="fill:#ebebeb;"/><rect x="171.646" y="250.253" width="76.792" height="76.792" style="fill:#ebebeb;"/><path d="M166.922,0c19.155,0 34.706,14.54 34.706,32.449c0,17.91 -15.551,32.45 -34.706,32.45c-19.155,0 -34.706,-14.54 -34.706,-32.45c0,-17.909 15.551,-32.449 34.706,-32.449Zm0,8.025c14.418,0 26.123,10.944 26.123,24.424c0,13.48 -11.705,24.424 -26.123,24.424c-14.417,0 -26.122,-10.944 -26.122,-24.424c0,-13.48 11.705,-24.424 26.122,-24.424Z" style="fill:#ebebeb;"/><path d="M102.909,4.015c0.008,-0.008 0.016,-0.016 0.024,-0.024c1.646,-1.646 4.318,-1.646 5.964,0c1.646,1.645 1.646,4.317 0,5.963c-0.008,0.008 -0.017,0.017 -0.025,0.025l-23.514,23.127l23.514,23.128c0.008,0.008 0.017,0.016 0.025,0.024c1.646,1.646 1.646,4.318 0,5.964c-1.646,1.645 -4.318,1.645 -5.964,0c-0.008,-0.009 -0.016,-0.017 -0.024,-0.025l-23.128,-23.514l-23.127,23.514c-0.008,0.008 -0.016,0.016 -0.025,0.025c-1.645,1.645 -4.317,1.645 -5.963,0c-1.646,-1.646 -1.646,-4.318 0,-5.964c0.008,-0.008 0.016,-0.016 0.025,-0.024l23.514,-23.128l-23.514,-23.127c-0.009,-0.008 -0.017,-0.017 -0.025,-0.025c-1.646,-1.646 -1.646,-4.318 0,-5.963c1.646,-1.646 4.318,-1.646 5.963,0c0.009,0.008 0.017,0.016 0.025,0.024l23.127,23.515l23.128,-23.515Z" style="fill:#ebebeb;"/></svg>
