<?xml version="1.0" encoding="UTF-8"?>
<!DOCTYPE svg PUBLIC "-//W3C//DTD SVG 1.1//EN" "http://www.w3.org/Graphics/SVG/1.1/DTD/svg11.dtd">
<svg version="1.1" xmlns="http://www.w3.org/2000/svg" xmlns:xlink="http://www.w3.org/1999/xlink" width="100%" height="100%" viewBox="-50 -37.5 100 75">
 <title>Smith et al aperiodic monotiling</title>
 <desc>An aperiodic tiling using a single shape by Smith, Myers, Kaplan and Goodman-Strauss, redwarn by CMG Lee based on http://newscientist.com/article/2365363-mathematicians-discover-shape-that-can-tile-a-wall-and-never-repeat .</desc>
 <style type="text/css">
.w { fill:#ffffff; }
.z { fill:#ffff00; }
.c { fill:#ff6600; }
.b { fill:#cc0000; }
 </style>
 <defs>
  <pattern id="pattern_grid" patternUnits="userSpaceOnUse" width="17.32" height="10">
   <path d="M 8.66,0 V 10 M 0,0 V 10 L 17.32,0 V 10 Z M 2.887,5 H 0 Z L 5.773,0 H 11.547 L 14.433,5 H 17.32 H 14.433 L 11.547,10 H 5.773 Z" stroke="#000000" stroke-width="0.1" fill="none"/>
  </pattern>
  <path id="p" d="M 0,0 L 4.33,2.5 L 5.773,0 H 11.547 L 12.99,2.5 L 8.66,5 V 10 H 5.773 L 4.33,12.5 L 0,10 V 5 H -2.887 L -4.33,2.5 Z"/>
  <g id="w">
   <use xlink:href="#p" transform="translate( 8.66,-5) rotate(60)"/>
   <use xlink:href="#p" transform="translate(-8.66,-5)"/>
  </g>
  <g id="z">
   <use class="z" xlink:href="#w" transform="translate(11.547,0)"/>
  </g>
  <g id="z3" transform="scale(0.34642,0.2)">
   <use xlink:href="#z" transform="rotate( 60)"/>
   <use xlink:href="#z" transform="rotate(180)"/>
   <use xlink:href="#z" transform="rotate(300)"/>
  </g>
  <g id="t">
   <use class="b" xlink:href="#p" transform="translate(2.887, -5) scale(-1,1)"/>
   <use class="c" xlink:href="#p" transform="translate(2.887,-15) rotate(60)"/>
   <use class="c" xlink:href="#p" transform="translate(-5.773, 0) rotate(60)"/>
   <use class="c" xlink:href="#p" transform="translate(11.547,10) scale(-1)"/>
  </g>
  <g id="i">
   <use xlink:href="#t"/>
   <use class="w" xlink:href="#w" transform="translate(2.887,15)"/>
   <use class="w" xlink:href="#w" transform="translate(-14.433,-5) rotate(300)"/>
   <use class="w" xlink:href="#w" transform="translate(11.547,-10) rotate(60)"/>
  </g>
  <g id="i1" transform="scale(0.34642,0.2)">
   <use xlink:href="#i" transform="rotate(300)"/>
  </g>
  <g id="i2" transform="scale(0.34642,0.2)">
   <use xlink:href="#i" transform="rotate(180)"/>
  </g>
  <g id="d">
   <use class="w" xlink:href="#p" transform="translate(-2.887,-5)"/>
   <use xlink:href="#t" transform="translate(2.887,-15)"/>
   <use xlink:href="#t" transform="translate(11.547,10) rotate(240)"/>
   <use xlink:href="#t" transform="translate(-14.33, 5) rotate(240)"/>
  </g>
  <g id="d1" transform="scale(0.34642,0.2)">
   <use xlink:href="#d"/>
  </g>
  <g id="d2" transform="scale(0.34642,0.2)">
   <use xlink:href="#d" transform="rotate(120)"/>
  </g>
  <g id="d3" transform="scale(0.34642,0.2)">
   <use xlink:href="#d" transform="rotate(240)"/>
  </g>
 </defs>
 <circle cx="0" cy="0" r="99999" fill="#ffffff"/>
 <g stroke="#000000" stroke-width="0.5" transform="scale(2.8867,5)">
  <use xlink:href="#z3" transform="translate( 16, 8)"/>
  <use xlink:href="#z3" transform="translate( 10,-4)"/>
  <use xlink:href="#z3" transform="translate( -5, 5)"/>
  <use xlink:href="#z3" transform="translate(-11,-7)"/>
  <use xlink:href="#d1" transform="translate(-14, 0)"/>
  <use xlink:href="#d1" transform="translate(  7, 3)"/>
  <use xlink:href="#d1" transform="translate( 22,-6)"/>
  <use xlink:href="#d2" transform="translate(  1,-9)"/>
  <use xlink:href="#d3" transform="translate( -8,12)"/>
  <use xlink:href="#i1" transform="translate( -2,-2)"/>
  <use xlink:href="#i1" transform="translate(-23,-5)"/>
  <use xlink:href="#i2" transform="translate(-17, 7)"/>
  <use xlink:href="#i2" transform="translate(  4,10)"/>
  <use xlink:href="#i2" transform="translate( 19, 1)"/>
  <circle cx="0" cy="0" r="99999" fill="url(#pattern_grid)" transform="scale(0.34642,0.2)"/>
 </g>
</svg>