<?xml version="1.0" encoding="UTF-8"?>
<svg width="1279pt" height="1280pt" version="1.0" viewBox="0 0 1279 1280" xmlns="http://www.w3.org/2000/svg">
  <g transform="translate(0 1280) scale(.1 -.1)">
    <path d="m6087 12793c-5-4-77-11-160-14-241-12-708-80-992-146-257-59-582-165-849-277-60-25-113-46-118-46-18 0-297-124-441-196-140-70-322-172-474-265-97-60-333-219-333-225s36 13 85 46c22 15 51 32 65 39l25 12-25-18c-349-253-774-596-918-743s-490-599-711-930c-125-188-271-421-271-433 0-3 16 0 36 6 60 18 110 75 200 227 204 343 480 734 720 1020 260 311 1019 915 1384 1101 113 58 114 58 50-1l-55-52 145 72c79 40 176 97 215 127 60 48 152 103 170 103 3 0-40-31-97-69-104-70-252-190-244-198 9-10 295 142 341 182 150 127 362 240 583 311 81 26 214 69 296 96 159 53 416 122 423 114 3-3-14-10-38-16-62-17-211-72-206-76 2-2 19 1 37 6 23 7 36 6 41-1 4-7 18-5 44 5 70 30 50 15-48-34-182-93-341-217-413-324-18-28-32-51-31-52 1-2 62 27 134 64 101 52 141 78 172 114 38 42 146 119 231 163 24 13 71 21 145 26 208 15 440 66 715 158 96 33 176 58 177 57s-49-23-111-50c-62-26-150-69-195-96-86-51-231-151-231-160 0-3 41-3 91-1l91 3 66 50c83 61 215 128 270 135 96 13 124-24 97-129-42-164-151-325-332-489-121-109-251-189-393-239l-75-26-12-65c-14-73-17-219-5-219 25 0 193 65 274 105 146 74 263 159 383 280 167 166 271 334 332 532 24 80 27 104 28 260 1 166 1 172-19 176-38 8-261 8-269 0zm118-34c-32-10-61-17-63-15-5 6 81 34 103 34 11 0-7-8-40-19zm-127 6c-10-10-319-85-431-104-135-24-247-36-247-28s228 82 313 101c106 25 111 19 12-15-49-17-94-35-100-41-7-7-4-9 10-5 11 3 43 9 70 13 28 4 64 14 80 22 74 38 162 62 229 62 38 0 67-2 64-5zm-643-75c-38-10-83-23-98-29-40-15-45-14-18 6 25 17 117 41 161 41 14 0-6-8-45-18z"/>
    <path d="m6423 12792c-7-4-18-44-24-87-28-203 42-486 160-646l28-38 57 83c31 46 63 89 71 96 12 10 9 20-20 63-72 108-109 239-85 297 23 56 78 65 171 26 248-101 557-455 669-762 20-57 24-62 57-67 65-11 223 17 223 39 0 14-115 204-167 276-213 296-555 542-929 668-65 22-114 40-109 40 6 0 3 5-5 10-18 12-80 13-97 2z"/>
    <path d="m6580 12779c25-6 134-44 242-85 199-75 369-129 388-122 5 1-29 25-75 51-67 38-122 58-262 97l-178 48 71 1c129 2 224-43 699-326 384-230 509-302 513-298 6 5-20 101-31 115-7 8-222 120-479 249s-466 236-465 238c5 4 178-33 283-62 96-26 129-31 120-17-3 5-30 14-61 21s-54 15-52 18c8 7 166-29 184-42 32-24 3-35-90-36h-92l130-66 130-65 110 4c112 4 155 17 155 44 0 10 6 13 18 10 39-12 312-76 370-86 121-21 452-151 572-224 30-18 87-48 125-66 170-79 215-99 215-96 0 4-169 114-215 140-26 15-27 16-5 10 99-27 200-97 360-250 65-62 117-100 218-158 74-42 145-84 159-94 25-16 26-16 15 4-22 41-285 285-333 310-27 13-49 26-49 29 0 11 89-31 143-67 31-22 62-36 69-32 6 4 8 3 5-3-4-6 21-27 56-48 34-21 139-91 232-155 94-65 185-125 202-134 50-25 85-37 78-26-9 15-288 198-427 280-127 75-168 108-64 51 139-77 170-93 161-83-30 30-466 269-525 287-14 4-27 8-30 9s-97 48-210 103c-360 178-613 273-950 358-221 56-379 81-735 120-77 8-196 22-265 30-157 19-498 30-430 14zm1867-323c151-52 497-196 489-204-2-2-55 18-117 43-63 26-195 78-294 117-99 38-182 71-184 74-9 8 10 3 106-30z"/>
    <path d="m5310 12491c-91-17-110-25-435-195-187-98-343-183-346-189-7-10-3-106 4-113 9-9 877 498 877 512 0 2-1 4-2 3-2-1-46-9-98-18z"/>
    <path d="m7885 12475c-5-2-22-6-38-9-27-6-27-7 52-84 80-79 121-142 141-223 11-44 12-44 151-117 93-48 139-68 139-58 0 7-9 42-20 77-30 97-101 194-203 277-62 50-198 143-207 141-3 0-9-2-15-4z"/>
    <path d="m4395 12376c-385-143-402-152-500-240l-40-37 84 41c138 68 468 219 596 272 66 28 122 52 124 54 13 11-37-5-264-90z"/>
    <path d="m8176 12451c5-4 61-29 124-56 186-78 477-217 738-351 208-107 241-121 222-96-57 77-150 129-560 314-251 113-370 160-454 179-43 9-74 14-70 10z"/>
    <path d="m5443 12360c-124-27-329-100-493-174l-135-62 3-55c6-84 13-86 117-34 168 85 366 135 529 135 148 0 266-45 308-116 11-19 24-34 29-34 14 0 169 162 169 178 0 24-106 119-167 148-51 25-71 29-163 31-75 2-131-3-197-17z"/>
    <path d="m6993 12340c-109-49-243-168-321-285-123-184-211-456-257-790-18-126-15-174 21-360 136-699 547-1248 1164-1554 86-43 239-105 244-100 15 15 46 270 44 349l-3 93-115 39c-159 55-277 134-436 292-259 259-440 570-504 865-22 102-41 295-47 476-7 206 39 389 139 560 59 100 159 197 226 219 28 10 52 20 52 23 0 16-147 193-159 193-3 0-25-9-48-20z"/>
    <path d="m7475 12238c93-96 105-105 176-131 85-31 386-177 524-255 49-28 92-49 96-46 11 7-2 147-15 161-18 19-311 168-438 222-111 48-348 131-413 146-26 6-18-6 70-97z"/>
    <path d="m4290 12256c-207-70-377-142-600-252-175-86-188-95-240-155-91-105-91-106-10-60 124 71 387 196 531 254 75 30 177 80 230 114 114 72 119 75 119 71 0-2-40-33-90-67-49-35-87-67-85-71 15-24 22-146 13-210-6-39-8-73-5-76s52 23 109 58c57 36 122 75 144 87l41 23 17 123c17 121 15 185-8 204-8 7-61-7-166-43z"/>
    <path d="m8330 12281c-11-22-13-87-4-143 6-36 10-39 157-114l150-76-7 37c-9 45 8 92 35 100 31 10 266-76 377-138 28-16 52-25 52-19 0 13-53 83-86 113-42 38-315 152-543 228-111 36-117 37-131 12z"/>
    <path d="m5360 12133c-14-2-48-11-76-19-49-13-55-18-109-101-164-253-245-505-245-766v-117l-53-73c-240-325-410-715-502-1150l-23-109 42-18c23-11 64-24 91-30 52-12 259-19 269-9 3 3 10 50 16 105 32 293 118 580 257 858 77 154 141 253 266 412 17 21 17 25-5 101-45 157-24 413 49 618 27 73 97 217 134 273l21 32-54-1c-29-1-64-4-78-6z"/>
    <path d="m4592 11982-134-77 5-60c8-108 74-213 182-290 57-41 181-105 204-105 5 0 16 30 25 67 14 55 53 163 82 230 3 6-4 14-16 18-35 11-140 116-165 166-14 26-27 66-31 88-4 23-9 41-13 41-3 0-66-35-139-78z"/>
    <path d="m8380 12031c0-5 7-28 15-51s15-52 15-64c0-18 32-40 168-118 305-174 549-294 785-384 83-32 90-33 112-18 13 9 34 36 46 61 40 83 12 201-77 320-22 29-50 58-64 65s-80 44-148 81c-68 38-125 67-128 65-2-3 12-23 31-46 66-76 90-161 65-228-10-25-5-33 68-113 43-47 96-108 117-136l40-50-47 40c-26 22-95 85-155 140-105 98-111 102-248 159-77 33-241 110-365 173-123 62-225 113-227 113s-3-4-3-9z"/>
    <path d="m3415 11936c-44-24-192-103-330-176-247-130-321-179-530-349-83-67-117-97-100-89 6 3 213 121 461 262 414 236 456 263 519 326 38 39 67 70 65 70-3-1-41-20-85-44z"/>
    <path d="m6170 11901c0-5-49-59-110-120l-110-111 15-63c22-93 29-259 15-347-6-41-15-127-20-190-13-181-56-352-125-492l-28-57 51-58c28-32 87-111 131-177l80-118 37 58c156 244 291 757 263 1003-19 166-45 305-80 426-38 129-119 297-119 246z"/>
    <path d="m6992 11878c-29-46-60-128-64-167-3-32 0-35 97-97 270-172 459-232 699-221 199 8 352 71 462 190 46 50 112 154 102 161-2 1-28 16-58 33s-91 52-135 77-83 46-87 46c-3 0-10-9-13-21-12-37-67-90-125-119-206-104-575-66-765 79-22 16-52 39-67 51l-26 20-20-32z"/>
    <path d="m4330 11864c-375-217-601-385-894-665-115-110-124-124-177-279-43-124-62-239-62-370 1-131 17-219 62-335 45-117 44-115 83-79 18 17 86 68 151 113 64 46 122 91 127 101 7 14 0 36-29 95-64 126-77 311-37 520 8 39 13 71 12 71 0 1-45 9-99 18-55 9-106 20-114 25-16 8 92 38 227 62 60 11 70 16 130 74 173 165 416 356 577 452 119 71 120 73 103 131-7 26-14 57-14 70-1 12-1 22-1 22s-20-12-45-26z"/>
    <path d="m3970 11834c-86-41-327-144-337-144-2 0-11 17-19 37-11 25-14 50-9 81 4 25 3 43-3 41-5-2-71-38-147-79-154-84-168-99-181-212-7-64 19-138 56-158 25-14 100 14 316 116 96 45 407 207 420 218 7 5 13 146 7 146-4-1-51-21-103-46z"/>
    <path d="m8346 11827c-15-129-4-400 26-620l12-87 99-123c213-264 455-510 751-761 100-86 130-106 137-95 6 8 22 37 36 64 14 28 36 64 48 80 52 70 49 76-105 191-69 51-194 166-364 336l-260 258-123 21c-67 12-120 25-118 29 3 4 50 13 104 20 99 13 100 13 95 39-23 135-37 279-38 391-1 75-5 141-9 147s-47 33-95 59c-48 25-110 59-138 75l-51 29-7-53z"/>
    <path d="m3275 11768c-199-111-189-103-288-243-85-121-232-336-271-396l-17-27 76-17c41-9 75-21 75-26s-2-9-4-9c-1 0-56-14-122-31-137-36-90-1-450-340-131-124-282-263-334-308s-100-94-107-109-12-69-13-120v-94l113 102c61 56 295 280 518 498 298 291 417 415 450 465 24 38 91 142 149 233 58 90 154 232 213 315s107 153 105 154c-2 2-43-20-93-47z"/>
    <path d="m9508 11758c16-24 36-55 45-69 9-15 69-59 134-99 191-118 432-295 616-454 63-55 96-76 154-96 41-15 74-31 74-36-1-5-14-13-31-17-16-4-30-10-30-13s18-32 40-64c113-166 207-383 221-509 10-98 1-86 203-259 110-95 108-96 76 55-48 228-180 488-368 728-139 175-520 486-862 702-118 75-286 173-295 173-3 0 7-19 23-42z"/>
    <path d="m9704 11719c57-62 99-91 303-216 296-181 473-276 508-271 26 3 25 4-25 60-76 85-249 226-427 346-83 56-81 47 2-13 69-49 83-72 38-61-39 10-240 107-355 171-53 30-99 55-103 55s23-32 59-71z"/>
    <path d="m4335 11647c-55-34-121-78-147-97l-47-35-1-77c0-76-16-173-46-275-11-36-36-78-82-135-73-91-261-284-332-341l-44-35 11-57c13-59 49-145 76-180 15-19 20-16 143 105 152 151 379 400 470 516 65 83 66 86 80 177 8 51 16 160 19 242 3 83 8 174 10 203 3 28 2 52-2 52-5 0-53-28-108-63z"/>
    <path d="m8726 11589c1-82 4-92 25-107 64-44 216-177 317-276 104-102 114-115 132-174 23-75 42-250 33-319l-5-50 58-50c33-28 102-87 156-131 111-93 102-97 118 57 16 155-17 359-79 495-54 115-354 380-673 594-42 29-79 52-80 52-2 0-3-41-2-91z"/>
    <path d="m9580 11626c0-2 49-82 108-178 59-95 138-223 175-285 63-104 81-124 280-315 190-183 458-433 513-481 24-20 25-33-11 144l-16 76-470 438-139 206-139 207-93 60c-169 108-208 133-208 128z"/>
    <path d="m2915 11562c-344-239-638-480-741-606-64-80-167-233-222-331-47-85-146-304-140-310 11-11 308 272 308 292 0 49 151 305 239 405 78 88 287 263 476 399 44 32 188 211 168 208-5 0-44-26-88-57z"/>
    <path d="m2540 11501c-649-486-1221-1125-1635-1825-169-287-261-529-226-595 39-72 201 42 536 378l180 180 12 112c7 62 11 115 8 117-2 3-53-42-112-98-166-158-286-240-352-240-51 0-54 39-9 153 50 127 212 355 373 526 66 71 169 200 309 390l20 26-30-25c-16-13-49-43-73-65-139-125 281 323 460 493 177 167 274 252 288 252 7 0 49 31 94 68 45 38 130 105 188 150 59 45 109 88 113 97 3 8 4 15 3 15s-67-49-147-109z"/>
    <path d="m7509 11300c0-14-8-56-18-95l-19-70 48-60c26-33 59-79 74-101l27-41 190-2 191-1-38 52c-21 29-54 74-75 100l-36 47 5 96c4 76 2 95-9 96-8 1-87 2-176 3l-163 1-1-25z"/>
    <path d="m10540 11255c13-14 26-25 28-25 3 0-5 11-18 25s-26 25-28 25c-3 0 5-11 18-25z"/>
    <path d="m10630 11179c30-29 116-112 190-184 75-71 198-195 275-275 76-80 115-116 85-81-150 177-373 400-541 540l-64 54 55-54z"/>
    <path d="m10550 11167c0-2 43-42 96-88s133-127 177-179 86-101 93-109c11-12 94-34 94-24 0 14-183 208-275 291-84 75-119 101-147 106-21 4-38 5-38 3z"/>
    <path d="m7668 10850c-98-17-222-69-318-133-25-17-93-69-152-116-123-98-120-86-51-201 46-78 180-239 191-230 4 2 26 30 48 61 50 67 150 136 249 171 316 112 813 18 1139-216 75-54 79-56 102-41 12 8 42 47 65 87 24 40 52 83 63 96l21 23-25 20c-121 93-370 242-542 323-288 136-574 192-790 156z"/>
    <path d="m5117 10678c-37-73-76-158-86-190l-19-56 31-12c18-6 64-27 104-46 328-160 593-594 668-1092 20-136 20-380-1-480-32-157-116-274-240-337-53-27-69-30-154-30-87 0-101 3-160 32-164 80-326 294-406 533l-32 95-39-5c-21-3-122-5-225-4-155 1-188-2-188-13 0-40 47-234 86-351 190-581 628-1081 1336-1525 175-109 371-218 379-210 9 11 51 152 88 298 59 237 105 520 118 733 6 104 22 123 23 27 0-75 27-301 55-472 40-235 125-560 148-564 26-5 499 292 687 431 978 723 1329 1607 1059 2670-50 199-52 203-90 222-48 24-161 46-275 54-87 6-97 5-91-9 15-40 68-272 83-367 24-158 30-514 10-666-43-326-145-575-300-730-83-82-164-126-276-150-221-46-371 60-441 312-17 63-23 116-26 254-6 197 13 349 62 493l26 78-80 85c-43 47-115 132-158 189s-81 104-85 105c-11 0-105-200-138-295-92-263-144-539-172-896l-13-164-7 85c-52 639-246 1228-529 1610-177 241-408 413-645 484-18 5-28-10-87-126z"/>
    <path d="m4550 10765c-330-123-482-197-720-354-82-53-319-230-388-288l-33-28 35-82c19-44 46-106 61-136l27-55 112 90c113 91 254 191 381 268 68 42 300 161 351 180 18 7 32 26 47 63 12 28 55 119 95 201s71 150 70 151c-2 2-19-3-38-10z"/>
    <path d="m9870 10692c-147-109-260-275-356-521-24-62-26-75-14-79 8-3 75-63 147-134 73-70 139-128 147-128s21 19 29 43c9 23 24 65 34 92 25 70 119 208 204 299l72 77-86 180c-47 98-84 179-82 179 6 0 139-181 202-275 50-75 70-95 114-120 220-119 429-268 584-415 118-113 120-114 123-85 2 16-1 71-7 123-6 51-9 97-6 102 6 10-169 171-307 281-188 150-431 299-627 384-57 25-104 45-105 45 0 0-30-22-66-48z"/>
    <path d="m2767 10695c-159-69-376-203-562-348l-93-72 6-95c8-144 0-141 125-56 153 105 334 206 369 206 25 0 145-134 224-249 3-3 71 48 209 157 33 26 71 54 85 63l25 16-35 74c-51 107-120 207-181 265-83 78-83 78-172 39z"/>
    <path d="m10979 10673c-13-34-7-93 27-273l26-135 125-115c69-63 129-116 133-118 3-1 0 28-7 65-26 123-4 213 52 213 53 0 185-120 297-270 119-160 237-378 246-455 3-33 25-84 72-169 37-66 88-160 114-208 26-49 48-88 50-88s0 21-5 48c-4 26-6 48-4 50 6 7 230-556 249-628 4-14-78 142-182 345-267 525-423 800-641 1132-92 142-109 163-132 163-55 0-43-32 70-203 426-644 761-1251 971-1760 36-87 66-154 67-150 2 5-21 82-51 173s-53 167-51 169c2 1 18-25 35-59s34-60 37-57c13 14-142 420-282 738-214 483-383 769-687 1164-111 144-366 404-425 434s-91 28-104-6z"/>
    <path d="m1636 10439-136-191v-62c0-33-7-142-15-241s-15-184-15-189c0-13 35 20 162 157l111 118 23 207c24 211 31 392 15 392-4 0-69-86-145-191z"/>
    <path d="m9073 10247c-11-12-44-58-74-102-107-157-317-347-437-395-29-11-33-17-28-39 3-14 9-119 13-233 3-115 9-208 13-208s55 20 113 43c312 129 546 336 698 614l33 63-59 52c-33 29-96 86-140 128-112 107-108 104-132 77z"/>
    <path d="m3043 10153c-152-132-376-287-605-418l-117-66-82-170c-45-93-84-168-86-166-4 4 49 191 76 271l21 59-45 48c-112 120-165 243-165 385 0 46-3 84-8 84-4 0-70-63-146-139l-139-139 6-104c8-128 26-200 78-307 47-95 149-208 232-256l48-28 152 76c242 121 451 260 727 480 85 68 175 142 200 164l44 40-27 79c-15 43-27 86-27 94 0 34-22 90-35 90-8 0-54-35-102-77z"/>
    <path d="m11070 10169c0-8 5-30 11-49 5-19 17-73 24-119 8-46 20-90 27-99 69-83 768-732 789-732 8 0-58 127-165 319-61 110-81 136-141 188-38 33-164 149-280 258-283 267-265 251-265 234z"/>
    <path d="m3843 9962c-18-10-83-59-145-109s-123-100-136-110l-23-18 65-81c169-214 436-374 731-440 98-21 333-29 435-15 249 37 486 153 733 361 82 68 97 85 91 103-13 47-125 264-151 295l-28 34-81-79c-121-117-253-185-449-230-100-23-392-23-495 1-111 25-228 68-306 111-64 36-162 123-195 172-14 21-15 22-46 5z"/>
    <path d="m9451 9851c-39-66-71-122-71-124 0-3 84-90 188-193 199-201 314-340 448-545l82-126 78-13c43-6 131-27 196-44 65-18 118-31 118-29 0 11-79 156-138 254-141 233-281 415-475 615-107 111-337 324-350 324-2 0-37-54-76-119z"/>
    <path d="m9961 9921c-17-27-45-85-61-130l-30-81 58-42c103-76 355-244 452-301 111-65 277-147 298-147 26 0 122 72 176 132 56 64 123 179 151 262l16 50-78 79c-74 75-215 197-227 197-3 0-6-12-6-27 0-70-86-184-170-228-31-16-34-16-111 15-102 41-235 118-329 189-41 31-82 62-91 68-15 11-21 6-48-36z"/>
    <path d="m3300 9919c-19-17-85-68-145-113-61-46-116-90-123-99-11-13-5-37 41-154 127-320 180-485 201-623l12-75 106-16c58-9 152-27 208-39 55-12 103-20 105-18 4 4-6 87-26 208-34 203-107 462-184 651-52 126-142 309-153 309-4-1-23-15-42-31z"/>
    <path d="m11063 9625c8-357 42-844 61-862 2-3 31 4 63 15 54 19 98 31 167 46 28 7 28 8 22 59-10 80-34 445-41 612l-7 150-76 78c-43 43-104 102-136 130l-59 52 6-280z"/>
    <path d="m1552 9765c-200-208-366-423-513-666-68-113-209-378-209-393 0-4 21 4 48 18 26 13 75 34 109 46 61 22 64 24 109 104 103 177 279 418 440 600 174 195 158 171 149 229-4 29-10 81-14 116l-6 64-113-118z"/>
    <path d="m9253 9572c-210-448-271-1025-152-1437 81-281 217-511 466-793l38-43 108 71c60 39 134 96 165 126l56 57-62 54c-241 213-382 579-399 1034-10 271 25 495 102 658l35 74-24 31c-13 17-82 86-153 154l-130 122-50-108z"/>
    <path d="m2819 9533c-365-382-613-811-700-1214-27-121-36-369-19-477 17-109 78-286 150-435 71-150 63-147 190-71 69 42 231 173 238 192 1 5-15 28-37 53-88 96-130 224-138 419-17 418 187 973 467 1273 85 91 85 89 15 237-25 52-45 103-45 113 0 9-4 17-9 17s-55-48-112-107z"/>
    <path d="m1620 9497c-53-56-112-122-132-147l-36-45-5-205c-15-554-204-1220-432-1518l-56-73 36-68c35-66 107-151 146-171 15-9 31 15 127 193 145 267 164 306 221 450 113 282 192 656 221 1037 6 80 10 258 8 397l-3 252-95-102z"/>
    <path d="m11398 9508c4-169 9-190 53-243 143-173 306-496 414-820 125-376 156-744 75-895-10-19-5-30 44-93 30-40 79-96 109-126l55-53 21 92c60 255 53 540-20 840-113 458-357 914-731 1363l-23 28 3-93z"/>
    <path d="m587 9081c-132-284-277-676-277-748 0-13-16-74-35-137-69-230-181-703-172-730 2-6 7 5 12 24 13 61 75 249 132 400 99 261 189 467 369 843 63 131 114 240 114 242 0 3-12 0-27-6-15-5-37-9-50-7-22 3-33-17-142-247-132-281-190-396-191-378-1 36 179 519 269 722 28 63 49 116 47 118-1 2-24-41-49-96z"/>
    <path d="m9574 8724c-9-51 1-295 16-375l13-66 211 5c161 3 238 0 327-12 311-44 594-148 796-293l74-53 57 56c191 187 476 293 714 264 46-5 94-13 107-16 22-7 23-5 16 27-16 75-94 298-129 366-43 87-46 88-245 80-204-8-359-59-546-181l-85-56-143 69c-307 149-641 221-1024 221h-152l-7-36z"/>
    <path d="m2763 8733-53-4-34-72c-19-40-46-110-60-157-26-86-59-241-52-247 2-2 43 1 92 7 391 44 873-40 1204-211 338-175 514-417 498-688-8-141-77-240-212-306-95-46-202-66-355-66-200-1-380 36-529 109l-52 25-103-99c-56-55-144-133-194-174-51-41-93-77-93-81 0-14 146-103 245-150 207-97 534-182 792-205 40-4 73-10 73-13s-62-16-138-29c-406-66-757-201-1044-402-127-88-318-281-397-399-143-215-223-441-238-667l-6-80 119-46c135-53 255-81 266-64 4 6 8 29 8 51 1 108 74 304 165 440 259 389 742 633 1215 612 220-10 346-69 435-203 135-203 83-433-146-648-94-88-231-182-325-222-47-20-63-31-59-42 18-48 55-331 55-429 0-29 4-53 8-53s48 16 97 36c635 256 1154 741 1635 1529 116 190 239 414 231 419-4 3-77 25-163 50-193 55-416 102-618 131-144 20-151 22-105 29 28 4 97 14 155 22 239 34 676 137 706 166 3 4-33 76-81 160-313 548-611 942-955 1262-328 304-715 524-1110 631-258 69-585 98-877 78z"/>
    <path d="m1080 8675c-453-93-774-501-955-1215-62-243-92-435-115-735-14-179-4-232 52-285l22-20-21-22c-58-64-71-142-53-333 6-71 15-200 20-285 9-159 25-276 59-435 33-147 109-420 116-413 2 2-14 73-36 158-50 196-102 446-96 462 2 7 10-18 17-57 57-305 211-700 361-925 64-95 222-270 233-259 4 3-7 48-24 100-37 111-90 313-90 340 0 10-21 42-46 70-177 199-303 553-292 819 8 203 74 246 246 160 193-97 437-393 616-750 40-80 88-185 107-234l33-88 36 6c45 7 220 95 220 110 0 19-87 230-149 361-120 252-285 519-444 715-160 198-410 418-534 469-41 17-42 27-4 36 79 17 285 171 379 283l43 52-52 85c-44 73-87 165-113 239-6 16-11 13-52-24-100-92-214-114-275-54-63 63-72 201-28 414 74 361 242 602 509 729 127 61 194 75 343 76h128l10 40c38 139 79 344 79 398v27l-92-1c-51 0-122-7-158-14zm-1023-3037c-3-7-5-2-5 12s2 19 5 13c2-7 2-19 0-25zm10-60c-3-7-5-2-5 12s2 19 5 13c2-7 2-19 0-25z"/>
    <path d="m8850 8573c-565-221-1063-656-1497-1308-145-218-373-605-373-633 0-20 346-113 580-156 163-29 249-42 400-57 122-12 152-19 79-19-93 0-401-42-583-80-174-36-436-107-452-123-4-3 38-84 93-179 189-328 357-578 552-823 120-151 423-456 561-566 326-257 701-439 1063-513 214-44 498-65 700-51l107 7 34 71c19 40 46 111 60 158 27 89 59 239 53 246-3 2-44-1-93-7-391-44-873 40-1204 211-338 175-514 417-498 688 8 141 77 240 212 306 95 46 202 66 355 66 200 1 380-36 528-109l53-25 102 99c57 55 145 133 196 174 50 40 92 77 92 81 0 15-141 101-242 148-228 107-525 182-840 211-68 7-139 15-158 20l-35 8 37 1c57 2 251 30 363 52 420 86 756 232 1031 450 101 80 248 242 322 353 115 174 188 366 217 571 22 150 21 152-22 171-91 39-255 94-300 100l-48 6-12-89c-48-351-314-684-700-877-191-95-351-135-579-143-247-9-363 24-475 136-106 107-153 257-120 388 49 193 251 405 508 530l91 45-9 31c-15 53-38 219-45 329-4 57-10 110-13 119-5 13-18 10-91-18z"/>
    <path d="m1992 8514c-98-52-105-55-125-40-75 55-128 88-133 84-2-3-27-104-54-224-26-121-53-232-59-248-7-16-10-29-9-30 22-12 92-68 124-98l41-39 97 65c53 36 105 68 115 71 14 4 19 20 24 68 3 34 24 141 47 237 22 96 42 183 44 193 2 9 1 17-2 17-4 0-53-25-110-56z"/>
    <path d="m12094 8505c19-50 86-280 106-365 21-85 28-100 70-147 98-107 201-318 252-513 26-98 31-135 32-250 1-118-2-141-20-181-38-81-106-86-236-17-235 125-550 556-712 973-33 86-36 90-63 87-39-4-76-19-160-64l-72-39 25-67c126-338 351-736 567-1004 173-216 392-409 551-483 38-18 65-35 60-37-5-3-33-13-61-22-101-33-270-158-372-276l-50-57 64-113c35-62 72-136 81-164s19-55 21-59c3-4 25 11 50 33 125 116 261 116 308 2 47-111 8-403-82-621-145-353-465-568-818-549l-85 4-10-35c-39-147-80-353-80-403v-28h83c425 0 771 287 989 820 103 250 202 647 229 915 40 407 34 475-47 525l-33 21 40 36c64 58 75 112 60 308-7 88-16 223-21 300-15 242-62 485-150 773-39 126-31 73 15-109 53-212 98-424 93-441-3-7-10 17-17 52-41 222-143 525-243 725-97 195-246 400-340 467-29 20-31 20-24 3zm633-1307c-3-7-5-2-5 12s2 19 5 13c2-7 2-19 0-25z"/>
    <path d="m3196 8079c-8-19-28-68-45-109-133-323-510-697-884-878-220-107-308-124-612-119-266 4-298 12-433 99-184 121-323 320-394 564-20 70-23 99-22 252 1 97-3 172-8 172-15 0-70-29-136-73-50-34-63-48-68-76-13-68 4-432 25-533 55-267 155-463 326-634 134-135 262-213 456-277 154-51 233-63 321-48 731 125 1347 565 1733 1236 67 116 165 312 165 330 0 20-259 106-363 121-46 6-47 6-61-27z"/>
    <path d="m42 7150c0-14 2-19 5-12 2 6 2 18 0 25-3 6-5 1-5-13z"/>
    <path d="m10453 7088c-47-62-142-161-230-240l-63-56 50-36c248-178 735-340 970-322 152 11 378 84 517 168 81 49 210 173 196 190-77 96-172 223-205 272-23 33-42 63-44 65s-16-6-33-18c-55-39-157-81-232-95-116-22-488-14-598 13-89 23-219 72-254 96-12 8-24 15-28 15s-25-24-46-52z"/>
    <path d="m1580 6393c-106-17-243-54-339-92-117-47-291-169-334-235-17-26-17-26 64-128 45-57 102-133 127-170 25-38 48-68 52-68 3 0 21 11 40 25 91 67 298 115 415 97 33-6 94-7 135-2 139 13 320-23 480-96 44-21 82-35 83-33 58 86 201 238 301 321l28 24-74 50c-161 109-366 198-583 253-201 51-316 67-395 54z"/>
    <path d="m10985 6365c-155-33-206-48-352-101-483-175-899-510-1206-972-113-169-271-472-255-488 3-3 64-25 134-49 138-47 260-73 274-59 5 5 22 44 39 87 67 169 147 294 294 457 238 266 540 467 832 556 85 26 103 28 329 31 191 3 250 1 300-12 242-61 463-287 564-575 45-128 56-214 48-367-4-92-3-133 4-133 38 0 199 108 207 138 11 45-5 435-21 525-24 125-78 284-132 387-161 304-441 509-803 585-93 19-123 18-256-10z"/>
    <path d="m6080 5764c-225-131-466-290-635-418-189-144-430-372-570-541-79-94-217-299-274-405-277-517-324-1116-140-1786 34-124 31-121 141-150 75-20 288-34 288-19 0 6-13 63-30 128-125 496-94 1044 80 1402 129 266 305 395 541 395 171 0 281-106 340-325 17-62 23-119 26-250 6-192-14-346-63-494l-26-80 88-95c49-52 121-137 159-189 39-53 73-96 76-96 11-2 128 256 158 349 70 219 120 479 146 759 22 247 22 244 23 188 3-85 33-318 58-457 165-900 579-1523 1120-1684 18-5 28 10 87 126 37 73 76 159 87 191l19 58-25 9c-14 6-31 10-37 10-7 0-45 18-86 40-310 170-548 543-643 1010-20 100-23 144-23 330 1 206 2 218 27 294 45 132 113 213 230 274 47 24 64 27 148 27 88 0 101-3 165-34 160-78 323-295 405-538l29-88 38 5c21 3 122 5 226 4 219-1 200-19 161 153-73 329-230 649-458 938-163 206-450 467-724 657-216 150-579 365-592 351-13-13-86-277-118-428-41-188-70-379-86-560-14-167-11-176-41 123-18 187-54 409-90 562-38 157-87 310-99 310-6-1-54-26-106-56z"/>
    <path d="m12751 5704c0-11 3-14 6-6 3 7 2 16-1 19-3 4-6-2-5-13z"/>
    <path d="m12742 5650c0-14 2-19 5-12 2 6 2 18 0 25-3 6-5 1-5-13z"/>
    <path d="m632 5515c-69-262-76-508-21-790 79-412 306-897 602-1290 73-97 160-204 167-204 3-1 2 61-1 137l-6 139-48 59c-167 204-354 603-449 957-56 208-70 302-71 482 0 161 1 173 26 232l26 61-48 64c-27 35-75 92-108 128l-59 65-10-40z"/>
    <path d="m11563 5412c-266-478-350-700-427-1127-47-260-58-382-63-745l-5-345 104 109c56 60 117 128 134 150l32 41 5 205c15 567 215 1256 447 1536 29 35 38 54 34 69-12 37-77 138-115 176-71 71-67 74-146-69z"/>
    <path d="m3100 5474c-90-55-189-134-219-174l-21-30 81-77c179-171 291-410 350-749 30-170 32-455 5-618-20-123-65-270-101-332l-24-41 35-41c19-23 65-69 102-104s91-86 120-114l53-52 26 51c122 243 210 566 233 867 32 408-63 796-273 1110-89 133-266 350-286 350-4 0-40-21-81-46z"/>
    <path d="m10423 5505c-72-31-172-104-302-221-11-10-6-22 32-68 91-112 127-221 134-413 7-161-7-283-53-461-80-316-239-627-415-816-84-90-84-88-14-236 25-52 45-103 45-112 0-10 4-18 9-18s57 51 116 113c331 346 564 727 666 1087 43 152 59 267 59 420 0 214-36 353-161 616-32 68-64 124-71 124-7-1-27-7-45-15z"/>
    <path d="m12670 5290c-20-83-104-325-175-505-84-211-161-385-311-699-68-142-124-260-124-262s12 1 27 7c15 5 38 9 51 7 22-3 33 16 146 257 174 371 213 441 170 309-74-225-228-626-279-725-20-38-18-51 2-14 99 182 329 796 306 819-3 2 6 40 20 83 68 208 194 736 184 767-2 6-10-14-17-44z"/>
    <path d="m1720 4844c-113-113-271-203-431-245-91-25-254-32-361-15l-57 8 25-92c30-108 70-219 113-312l31-66 76-7c103-10 226 1 343 31 106 27 283 109 370 172l54 39 126-63c215-107 455-178 716-211 131-16 468-23 482-10 22 23-2 457-27 472-4 2-64-1-134-7-426-38-943 103-1246 341l-26 20-54-55z"/>
    <path d="m10950 4839c-30-23-80-55-111-72l-57-31-5-61c-3-33-24-139-47-235-22-96-42-183-44-192-2-10-2-18 2-18 3 0 52 25 109 55 60 32 109 53 116 48 7-4 38-26 71-50 32-24 62-43 66-43 8 0 34 100 74 290 14 63 32 137 40 165 8 27 14 50 13 50-20 10-109 81-131 104-17 17-32 31-35 31-3-1-31-19-61-41z"/>
    <path d="m266 4730c4-14 31-101 61-194 30-92 53-170 50-172-2-2-16 23-32 56-59 123-48 53 20-135 149-411 388-931 553-1205 234-391 598-833 773-939 45-28 85-27 100 1s8 121-22 281l-24 128-128 121c-70 66-129 119-131 117s3-43 11-90c11-67 12-95 3-128-29-109-130-64-292 129-139 166-308 462-308 538 0 26-24 80-84 191-46 86-97 182-113 213-15 32-31 58-34 58s-3-21 2-47c4-27 6-49 4-51-7-7-255 630-255 655 0 4 85-161 188-367 254-507 426-814 645-1148 90-138 103-153 126-150 48 6 37 37-72 204-438 669-799 1334-981 1804-42 109-70 171-60 130z"/>
    <path d="m11920 4080c-19-11-67-31-107-46l-71-26-76-128c-114-191-285-415-500-654l-69-76 8-53c4-28 10-81 14-116l6-64 116 121c191 198 371 431 513 666 66 109 210 385 204 391-2 2-19-5-38-15z"/>
    <path d="m1586 4044c-37-13-95-29-127-35l-60-12 6-41c10-80 25-305 35-541l11-240 264-258 3 134c6 234-37 990-57 1010-3 4-37-4-75-17z"/>
    <path d="m2341 3953c150-279 292-480 507-715 99-110 299-301 383-367l26-20 152 250-77 71c-229 214-451 477-585 695-28 47-61 89-72 93-11 5-54 14-95 20-41 7-121 25-178 41-56 16-105 29-108 29s18-44 47-97z"/>
    <path d="m9086 3983c47-339 117-605 226-863 50-117 126-270 135-270 3 0 47 33 97 73 50 41 111 87 136 104s55 42 68 56l23 25-70 180c-100 257-158 433-177 542-9 52-18 100-19 106-2 6-43 16-92 23-48 7-139 23-201 37-63 13-117 24-122 24s-6-17-4-37z"/>
    <path d="m11979 3699c-96-62-205-159-404-358l-180-181-12-112c-6-62-10-115-7-117 2-2 43 34 91 80 183 176 311 263 376 257 28-3 32-7 35-34 10-104-177-404-398-638-84-88-351-436-304-396 16 13 49 43 74 65l44 40-38-45c-105-123-340-369-454-476-184-173-292-268-305-270-7-1-72-49-145-107-72-58-152-120-177-138s-52-44-61-58c-18-26-21-28 143 91 29 21 106 82 170 135 508 416 930 878 1280 1403 233 349 376 632 405 798 10 57 9 73-1 86-22 26-64 18-132-25z"/>
    <path d="m890 3579c92-183 204-374 234-398 51-43 162-146 376-349 112-106 205-191 207-189s-5 42-16 88-22 105-26 131c-6 46-12 53-263 296-283 275-407 390-495 459l-58 45 41-83z"/>
    <path d="m7976 3605c-256-49-466-163-750-408l-39-33 41-93c45-101 112-220 136-240 12-10 27 1 88 62 40 40 105 92 145 116 310 184 787 186 1112 4 63-35 162-124 192-172l15-24 41 26c23 14 81 59 130 99 48 41 105 86 125 102l38 28-32 47c-47 68-182 200-268 260-140 99-321 178-495 217-101 23-378 28-479 9z"/>
    <path d="m2068 3589c-47-24-139-108-182-167-38-53-97-167-116-226l-12-38 78-80c89-89 205-188 223-188 6 0 11 11 11 25 0 69 87 183 169 219l41 19 85-36c112-48 255-132 348-206l76-60 31 48c36 58 94 211 83 221-4 4-84 61-178 126-234 164-441 286-586 347-32 13-38 13-71-4z"/>
    <path d="m10518 3512c-175-89-309-171-476-291-118-85-360-275-442-348l-44-40 27-79c15-43 27-86 27-94 0-34 22-90 35-90 8 0 47 28 86 63 163 142 395 303 622 432l118 67 81 169c45 93 83 167 85 165 5-4-44-177-77-270l-20-59 45-48c112-120 165-243 165-385 0-46 3-84 8-84 4 0 70 63 146 139l139 139-6 104c-3 57-13 130-22 163-24 93-88 214-149 282-50 55-165 143-187 143-4 0-77-35-161-78z"/>
    <path d="m4925 3492c-20-108-41-323-33-344 4-9 51-31 116-52 176-59 306-149 483-334 215-225 383-510 454-772 16-58 29-143 35-220 5-69 14-152 21-185 16-86 6-310-19-405-69-260-203-460-342-511l-60-22 18-29c9-16 46-61 82-100l65-71 70 36c276 141 456 456 540 942 35 209 38 249 21 360-129 852-614 1473-1383 1774l-51 20-17-87z"/>
    <path d="m4180 3539c-99-35-273-126-365-191-163-115-312-281-395-439l-39-76 145-136c81-76 153-137 160-137 8 0 29 21 47 47 159 229 359 420 488 465l30 10-8 117c-4 64-7 171-7 239 1 67 0 122 0 121-1 0-26-9-56-20z"/>
    <path d="m11782 3196c-63-22-99-64-207-243-261-432-635-943-835-1143-248-247-720-622-1060-842-103-67-285-169-299-168-3 1 19 23 49 51l55 50-142-70c-79-39-175-96-215-127-63-49-155-104-173-104-3 0 40 31 97 69 107 72 253 190 245 198-10 9-295-142-342-182-68-57-232-164-330-213-77-39-166-70-555-196-184-59-355-106-380-105-8 0 3 7 25 15 151 54 186 67 182 70-2 2-19-1-37-6-23-7-36-6-41 1-4 7-18 5-44-5-70-30-50-15 50 35 145 74 229 133 326 229 73 72 140 161 112 149-4-3-64-33-133-68-96-49-135-74-167-111-39-44-148-121-233-165-24-13-71-21-145-26-208-15-440-66-715-158-96-33-176-58-178-56-1 1 19 10 45 20 105 39 256 118 354 184 171 115 167 108 53 103l-96-4-64-49c-79-59-217-129-272-136-96-13-124 24-98 129 37 145 139 301 297 454 139 134 271 218 428 274 65 22 76 30 83 55 13 46 23 255 11 255-26 0-189-63-273-105-146-73-264-159-385-280-122-121-198-228-269-375-73-152-89-226-90-422l-2-167 26-5c62-11 521 12 665 34 331 48 428 64 550 86 333 60 743 185 1073 328 46 20 88 36 93 36 20 0 277 114 429 189 243 121 514 281 738 435 80 56 105 79 60 55-13-7-41-24-63-39s-51-32-65-39l-25-12 25 18c364 264 761 585 921 744 85 85 337 401 501 629 184 255 488 724 477 734-2 2-19-2-37-8zm-4392-3030c0-7-236-82-313-100-100-23-103-19-7 15 47 17 90 35 95 41 7 7 4 9-10 5-11-3-40-9-65-12-25-4-83-23-130-43-68-28-102-36-170-40-47-2-82-2-79 2 3 3 76 24 161 46 131 33 220 51 418 83 37 6 100 8 100 3zm81-33c-24-16-128-43-166-42-11 0 12 9 50 19 39 10 81 23 95 29 38 15 47 13 21-6zm-850-89c-18-8-47-17-65-19-19-3-10 3 24 14 66 23 88 25 41 5z"/>
    <path d="m8063 3063c-31-4-32-6-38-61-24-228-72-444-140-628-82-222-212-463-336-624l-70-91 15-47c54-164 41-396-34-624-29-85-97-230-142-297l-22-34 79 6c44 3 103 13 132 22 48 14 54 20 108 103 164 252 245 505 246 766v119l43 56c125 162 302 489 381 704 46 125 99 312 129 457l24 112-42 18c-23 11-62 23-86 28-55 12-203 21-247 15z"/>
    <path d="m11180 2910-132-140-24-208c-23-208-31-392-16-392 8 0 139 176 229 310l51 75 6 130c4 72 12 181 17 243 6 62 9 115 7 118-3 2-65-59-138-136z"/>
    <path d="m1795 2938c5-57 9-116 9-133 1-24 21-47 121-138 266-241 554-432 838-553l79-34 46 32c66 45 171 152 219 224 49 72 120 211 158 311l28 73-29 22c-16 12-81 73-145 135-63 62-122 113-131 113-10 0-22-17-33-47-9-27-24-68-32-92-22-62-120-203-204-294l-72-78 38-82c21-45 60-127 87-182l49-100-36 40c-19 22-80 106-136 188-90 132-106 150-152 173-119 61-349 213-467 310-36 29-101 89-145 133-44 45-84 81-89 81s-6-41-1-102z"/>
    <path d="m9145 2888c-200-162-443-316-643-408-57-27-107-52-112-56-4-5-29-58-55-119-26-60-67-147-91-192-24-44-44-83-44-86s33 6 73 20c375 130 698 320 1080 635l29 23-56 130c-31 71-59 132-64 135-4 4-56-33-117-82z"/>
    <path d="m1750 2728c1-89 74-326 142-462 90-178 261-414 383-527 182-168 405-343 625-490 137-92 383-240 388-234 2 2-7 19-21 37-13 18-32 47-41 65-11 22-45 49-108 88-214 131-465 317-663 490-56 50-84 66-143 85-83 26-96 38-52 46 17 4 33 11 36 16s-11 34-31 65c-53 79-138 244-175 337-18 46-37 119-44 174-15 109 1 87-200 260l-96 82v-32z"/>
    <path d="m10560 2684c-156-108-345-214-381-214-19 0-112 96-167 170-30 41-56 77-58 79-3 4-55-34-160-120-45-36-98-76-118-88-20-13-36-27-36-32 0-17 82-172 120-229 39-58 130-148 169-169 47-26 407 178 655 370l95 74-6 95c-9 144-3 140-113 64z"/>
    <path d="m10790 2587c-96-89-332-317-523-507l-348-345-91-145c-103-165-299-456-366-543-24-32-43-60-41-61 5-4 240 126 273 151 28 20 323 437 389 550 5 7-17 16-68 28-41 9-75 20-75 25 0 7 71 28 201 60 41 10 80 43 346 294 165 155 337 313 381 350s85 80 92 95c6 15 10 66 8 118l-3 91-175-161z"/>
    <path d="m3376 2623c-21-38-49-87-63-111-25-42-25-44-7-64 11-11 62-53 114-93 110-84 321-282 500-470 68-71 131-133 139-136 9-3 67-14 129-24 61-10 112-22 112-25 0-4-42-13-92-19-51-7-98-14-104-16-8-2-5-44 8-142 11-76 20-202 21-281 2-131 4-145 22-158 42-31 267-145 273-139 15 15 6 499-12 625-17 123-18 126-63 185-192 249-511 581-777 808-81 70-151 127-155 127s-24-30-45-67z"/>
    <path d="m3897 2668c-13-13-40-53-61-88-21-36-47-75-59-88-25-27-36-16 143-135 373-249 700-378 992-394 258-13 416 45 668 248 63 50 116 93 118 94 5 4-54 115-85 162-33 48-155 193-163 193-3 0-14-16-24-35-25-45-107-123-169-159-297-174-880-96-1241 166-88 64-91 64-119 36z"/>
    <path d="m9454 2669c-10-11-76-61-147-111-70-50-132-99-137-108-7-13 1-38 29-94 29-56 42-98 51-163 14-98 8-259-15-363-7-36-13-65-12-66s46-9 100-18c55-9 106-20 114-25 16-8-92-38-227-62-60-11-70-16-130-74-172-164-438-373-587-459-110-64-110-63-88-141 9-36 19-65 22-65 12 0 230 131 335 201 302 202 677 530 720 629 117 265 144 538 76 759-24 78-68 181-78 181-4 0-15-9-26-21z"/>
    <path d="m6684 2573c-139-216-266-661-266-928 1-207 98-612 177-731l15-24 51 58c28 31 79 84 115 117l64 60-15 70c-22 104-29 258-15 345 6 41 15 127 20 190 14 182 49 322 117 472l36 77-51 58c-28 32-87 111-130 176l-80 119-38-59z"/>
    <path d="m10900 2423c-127-111-230-215-230-232 0-29-69-162-137-266-99-150-292-332-526-498-71-51-106-84-152-146-33-45-62-86-64-93-8-24 382 258 544 393 252 211 354 331 503 594 46 81 146 304 140 311-2 1-37-27-78-63z"/>
    <path d="m2103 2455c4-11 13-59 21-107s19-96 25-106c6-11 115-119 244-240l233-221 266-400 111-74c140-92 187-120 187-113 0 3-40 70-88 148-49 79-125 204-169 278-78 130-90 143-280 330-169 167-275 267-517 490-29 27-37 30-33 15z"/>
    <path d="m3237 2397c-16-64-28-211-22-277 14-160 69-339 125-410 89-113 465-420 690-563l25-16-3 92c-3 80-6 94-25 110-12 10-67 56-122 101-55 46-146 127-202 180-83 79-104 106-117 144-27 85-38 161-39 281-2 139 6 125-137 241-52 43-111 92-131 109-37 30-37 31-42 8z"/>
    <path d="m8884 2238c-205-208-347-366-463-516-29-37-35-56-48-145-13-94-33-487-24-487s162 96 228 144l73 51v74c0 72 41 285 63 326 34 66 294 346 397 428l44 35-12 59c-12 60-69 184-87 190-6 2-82-70-171-159z"/>
    <path d="m1634 2133c102-121 339-357 474-474 59-50 82-68 52-38-171 164-329 321-458 454-125 129-135 137-68 58z"/>
    <path d="m1766 2048c3-5 40-49 83-97 110-128 284-283 332-297 21-7 39-9 39-5 0 3-45 47-101 96-56 50-139 136-186 192-58 71-92 105-111 109l-45 9c-9 2-14-1-11-7z"/>
    <path d="m4790 1885c0-4 32-49 71-102l71-95-7-94c-6-75-5-95 6-99 8-2 87-6 175-7l162-3 17 80c9 44 21 87 26 96 6 12-4 32-39 75-26 33-60 80-76 104l-28 45-189 3c-104 1-189 0-189-3z"/>
    <path d="m2246 1568c6-21 5-22-12-8-19 14-19 14 0-7 10-13 22-20 27-18 4 3 14-3 21-13 36-51 308-270 448-361 64-41 60-37-44 43-54 42-50 55 11 35 43-13 251-117 362-180l75-43-60 72c-55 67-77 82-349 248-277 169-433 254-470 254-12 0-15-5-9-22z"/>
    <path d="m10295 1456c-22-13-222-128-445-255-365-208-413-239-485-307l-80-76 120 63c535 278 586 309 830 508 124 100 132 109 60 67z"/>
    <path d="m3287 1406c-68-68-71-170-7-291 54-104 82-128 241-214 81-45 151-81 155-81 3 0-10 18-29 40-68 75-94 150-77 227l11 45-69 77c-93 104-152 176-152 185 0 4 65-55 145-130l145-138 162-72c240-105 327-147 460-220 65-36 121-64 124-61s-5 38-18 79l-23 75-130 76c-241 140-545 293-734 369-42 16-97 38-123 49l-48 19-33-34z"/>
    <path d="m4945 1415c-140-26-251-82-339-171-69-69-125-164-104-177 7-4 51-30 98-58s106-62 131-75l47-23 6 24c16 63 135 138 261 166 92 20 284 15 380-10 105-28 212-79 286-138l61-47 19 24c28 37 62 129 63 174 1 40 1 40-99 103-115 72-254 142-341 171-144 49-329 63-469 37z"/>
    <path d="m9365 1383c-138-57-271-121-451-216l-191-101-7-69c-3-39-5-72-3-74 3-2 65 24 138 58 114 52 296 129 306 129 1 0 10-14 19-32 12-22 15-45 11-80-3-26-4-48-1-48 2 0 68 35 146 78 130 71 143 80 160 120 39 86 34 177-13 236-25 31-37 31-114-1z"/>
    <path d="m7917 1284c-9-36-32-104-51-150l-33-85 31-21c97-66 169-163 182-247 4-23 9-41 12-41s66 35 140 78l134 77-5 60c-8 112-77 221-189 297-56 38-177 98-196 98-5 0-16-30-25-66z"/>
    <path d="m2755 1174c89-64 267-179 385-249 150-89 161-102 28-32-60 31-108 55-108 52 0-12 384-225 480-265 41-18 170-79 285-135 565-278 983-402 1570-465 55-6 134-15 176-21 217-28 351-40 509-44 125-3 164-2 137 5-21 5-133 46-250 89-205 77-394 137-403 129-2-3 33-26 78-53 67-40 116-58 267-101l186-53h-72c-124-1-232 47-583 260-284 172-504 304-584 349l-58 33 7-34c20-100 10-92 223-198 255-126 752-382 752-386 0-6-221 44-312 70-56 16-94 23-100 17s18-16 62-27c39-10 69-19 66-22-8-8-170 28-195 44-24 15-24 16-5 30 14 11 41 14 102 11 45-2 82-2 82-1 0 2-55 31-122 65l-123 62-110 1c-114 0-175-14-175-41 0-17 4-18-83 5-39 11-148 36-241 56-101 21-218 54-288 81-133 51-316 134-356 163-45 31-349 172-320 148 15-12 69-48 120-80 51-31 100-61 108-67 8-5-22 6-68 25-91 37-155 85-319 239-56 52-116 102-135 112-18 9-82 46-141 81-60 36-111 63-114 59-11-11 277-286 332-317 30-17 55-33 55-35 0-8-93 37-145 71-31 19-61 32-67 29-6-4-8-3-5 3 4 7-35 38-91 73-53 35-156 104-227 155-126 89-221 145-247 145-7 0 10-16 37-36zm1380-734c154-62 282-115 285-117 25-25-357 124-530 206-95 46-65 35 245-89z"/>
    <path d="m5116 1049c-68-16-70-23-29-98 197-357 475-618 845-796 129-61 298-125 332-125 10 0 15-4 12-9-12-19 66-29 92-13 7 5 18 48 24 96 26 194-32 446-143 622l-43 67-18-24c-9-13-41-58-70-99l-54-75 38-60c20-33 49-97 64-142 29-92 27-140-8-175-17-17-29-20-77-15-222 20-600 411-736 762l-37 95-77-1c-42-1-94-5-115-10z"/>
    <path d="m9335 1004c-120-70-363-186-516-247-76-30-176-80-230-114-114-72-119-75-119-71 0 2 40 32 89 67 89 62 89 63 80 94-12 40-12 180 0 230 9 36 8 37-12 31-12-4-47-23-77-44-30-20-89-56-132-80l-76-45-17-130c-16-119-16-133-2-167l15-37 84 26c195 59 461 169 708 293 142 71 160 83 210 141 65 75 84 99 79 99-2 0-40-21-84-46z"/>
    <path d="m4506 933c4-54 11-82 23-91 33-27 270-148 406-208 127-56 364-142 439-159 26-5 17 7-69 97-82 87-107 106-156 125-116 44-298 131-462 221-93 51-173 92-178 92-6 0-7-30-3-77z"/>
    <path d="m3544 831c63-63 80-73 416-231 268-126 470-210 555-230 82-19 110-19 59 0-109 41-363 161-694 327-212 106-387 193-390 193-2 0 22-27 54-59z"/>
    <path d="m3690 869c7-13 30-45 51-70 34-41 55-53 191-111 247-106 489-190 504-175 12 12 19 68 16 132l-4 65-148 75c-82 41-151 75-153 75s-2-21 1-48c3-37 0-52-16-72l-21-25-108 37c-88 29-173 66-316 136-5 2-3-6 3-19z"/>
    <path d="m4453 800c11-80 73-187 161-275 106-107 243-198 283-189 66 14 66 12-4 77-81 76-138 161-154 231l-12 53-280 146 6-43z"/>
    <path d="m7865 769c-147-80-376-139-539-139-148 0-261 43-306 115-12 19-25 35-30 35-10 0-137-126-156-156-15-22-14-26 15-63 43-54 139-116 202-131 161-39 458 31 799 189l125 57-3 55c-4 50-16 81-31 78-3-1-37-19-76-40z"/>
    <path d="m8105 728c-221-126-727-429-723-433 1-1 46 5 98 15 91 16 111 25 435 194 187 98 342 180 345 182 2 3 5 32 6 64 2 41-1 60-9 59-7 0-75-37-152-81z"/>
    <path d="m8855 663c-102-52-471-222-607-278-64-27-116-50-114-52 4-4 226 75 436 156 181 70 283 126 340 186 30 31 29 31-55-12z"/>
  </g>
</svg>
