<svg xmlns="http://www.w3.org/2000/svg" viewBox="0 0 144 161.92">
  <defs>
    <style>
      .hat, .staff-tip-1, .robe {fill:#4289c1;}
      .staff {fill:#d99e82;}
      .face, .hand {fill:#ffdc5d;}
      .staff-tip-2 {fill:#b0f0ff;}
      .nose, .mouth {fill:#c1694f;}
      .eye {fill:#662113;}
      .beard {fill:#e6e7e8;}
    </style>
  </defs>
  <title>wizard</title>
  <g class="staff">
    <!-- Convert this into a circle   -->
    <path class="staff-tip-1" d="M27.05,26.94A13.53,13.53,0,1,1,13.52,13.41,13.5,13.5,0,0,1,27.05,26.94Z" />
    <circle class="staff-tip-2" cx="11.27" cy="24.81" r="6.74" />
    <!-- Merge these into one path. Assume the "hand" will cover -->
    <path class="staff-mid" d="M17.91,93.39v33a21.82,21.82,0,0,0-4.23-.38,24.49,24.49,0,0,0-4.59.41V86.17C9.71,88.62,12.48,91.15,17.91,93.39Z" />
    <path class="staff-top" d="M22.17,37.33,17.91,53.46V82.52q-2.79.84-5,1.61l-.46.16c-.7.24-1.35.48-1.95.7l-.57.22-.84.32V53.46L4.82,37.28a13.5,13.5,0,0,0,17.35,0Z" />
    <path class="staff-bottom" d="M17.91,152v9.9H9.09V152a11.58,11.58,0,0,0,4.4.86A11.76,11.76,0,0,0,17.91,152Z" />
  </g>

  <!-- Simplify this path - it's just a rounded rectangle!  -->
  <path class="robe" d="M139.45,161.92H17.91V152c5.35-2.16,9.2-8.09,9.2-14.52a11.82,11.82,0,0,0-1.81-6.73c5.53-3.57,12.15-4.68,18-4.77a17.64,17.64,0,0,0,3.4,6.71c-.95,4,1.85,12.45,9,12.36-.39,4.74,1.83,9,7.23,9a14.56,14.56,0,0,0,4.51-.89,11.79,11.79,0,0,0,18.13,0,14.62,14.62,0,0,0,4.52.89c5.39.07,7.62-4.23,7.23-9h.13l.55,0,.48,0a7.64,7.64,0,0,0,2.39-.71l.36-.18a8.46,8.46,0,0,0,1.77-1.31c.16-.15.31-.31.46-.48l.21-.24c.11-.12.21-.25.31-.38l.29-.39.3-.47c.11-.17.2-.34.3-.51s.2-.35.29-.53a13.85,13.85,0,0,0,.83-2.19,4.44,4.44,0,0,0,.16-.6.19.19,0,0,0,0-.08c0-.19.08-.37.12-.56s.09-.59.12-.87,0-.32.05-.48a8.12,8.12,0,0,0-.16-2.32,17.47,17.47,0,0,0,3.39-6.71C123.34,126.22,141.32,132,139.45,161.92Z" />

  <g class="face">
    <!-- Simplify this path! The face path is needlessly complicated since it is covered by the beard. Could be a simple rectangle plus two ears. -->
    <path class="face" d="M120.75,87.27c0,4.42-1.24,8.15-4.09,10.77h0c-.58,4.37-2,7.72-4.08,7.72a1.43,1.43,0,0,1-.29,0c.6,2.27.89,9.52-2.8,10.64a16.23,16.23,0,0,1,.2,9.62,17.47,17.47,0,0,1-3.39,6.71,8.12,8.12,0,0,1,.16,2.32c0,.16,0,.32-.05.48s-.07.57-.12.87-.07.37-.12.56a.19.19,0,0,1,0,.08,4.44,4.44,0,0,1-.16.6,13.85,13.85,0,0,1-.83,2.19c-.09.18-.19.36-.29.53s-.19.34-.3.51l-.3.47-.29.39c-.1.13-.2.26-.31.38l-.21.24c-.15.17-.3.33-.46.48a8.46,8.46,0,0,1-1.77,1.31l-.36.18a7.64,7.64,0,0,1-2.39.71l-.48,0-.55,0h-.13c.39,4.74-1.84,9-7.23,9a14.62,14.62,0,0,1-4.52-.89,11.79,11.79,0,0,1-18.13,0,14.56,14.56,0,0,1-4.51.89c-5.4.07-7.62-4.23-7.23-9-7.13.09-9.93-8.4-9-12.36a17.64,17.64,0,0,1-3.4-6.71,16.3,16.3,0,0,1,.21-9.62c-3.7-1.12-3.41-8.37-2.8-10.64a1.43,1.43,0,0,1-.29,0c-2.12,0-3.5-3.35-4.08-7.72-2.87-2.63-4.11-6.36-4.11-10.78,0-7.6,5.28-8.1,6.73-8.09-.41-.4-.34-.62-.76-1.41l1.35-.24,2-.32c1.71-.27,3.46-.53,5.27-.77l2-.25,3.62-.41.27,0,.66-.07a230.4,230.4,0,0,1,46.38,0c6.08.62,11.65,1.45,16.69,2.38a5,5,0,0,1-.91,1.26C117.56,79.74,120.75,81.36,120.75,87.27Z" />
    <path class="hand" d="M27.11,137.5c0,6.43-3.85,12.36-9.2,14.52a11.76,11.76,0,0,1-4.42.87,11.58,11.58,0,0,1-4.4-.86,14.38,14.38,0,0,1-7.74-8.38,19.19,19.19,0,0,1-1.26-6.93c0-6.39,3.92-9.32,9-10.31a24.49,24.49,0,0,1,4.59-.41,21.82,21.82,0,0,1,4.23.38,11,11,0,0,1,7.39,4.39A11.82,11.82,0,0,1,27.11,137.5Z" />
    <path class="mouth" d="M89.81,108.14v1a3.39,3.39,0,0,1-3.39,3.39H80.74a18.4,18.4,0,0,0-8.52,0H66.53a3.38,3.38,0,0,1-3.38-3.39v-1a27.43,27.43,0,0,1,4.62-.32c5.67,0,8.67-1.28,8.67-2.64v-.81h.08v.81c0,1.36,3,2.64,8.67,2.64A27.43,27.43,0,0,1,89.81,108.14Z" />
    <path class="nose" d="M83.17,94.72A3.14,3.14,0,0,1,80,97.86h-7.1a3.15,3.15,0,1,1,0-6.29H80A3.14,3.14,0,0,1,83.17,94.72Z" />
    <path class="eye" d="M63,84.28v4.21a4.59,4.59,0,0,1-9.17,0V84.28a4.59,4.59,0,1,1,9.17,0Z" />
    <path class="eye" d="M99.12,84.28v4.21a4.59,4.59,0,0,1-9.18,0V84.28a4.59,4.59,0,1,1,9.18,0Z" />
    <path class="beard" d="M116.84,96c0,.69-.12,1.36-.21,2-.58,4.37-2,7.72-4.08,7.72a1.43,1.43,0,0,1-.29,0c.6,2.27.89,9.52-2.8,10.64a16.23,16.23,0,0,1,.2,9.62,17.47,17.47,0,0,1-3.39,6.71,8.12,8.12,0,0,1,.16,2.32c0,.16,0,.32-.05.48s-.07.57-.12.87-.07.37-.12.56a.19.19,0,0,1,0,.08,4.44,4.44,0,0,1-.16.6,13.85,13.85,0,0,1-.83,2.19c-.09.18-.19.36-.29.53s-.19.34-.3.51l-.3.47-.29.39c-.1.13-.2.26-.31.38l-.21.24c-.15.17-.3.33-.46.48a8.46,8.46,0,0,1-1.77,1.31l-.36.18a7.64,7.64,0,0,1-2.39.71l-.48,0-.55,0h-.13c.39,4.74-1.84,9-7.23,9a14.62,14.62,0,0,1-4.52-.89,11.79,11.79,0,0,1-18.13,0,14.56,14.56,0,0,1-4.51.89c-5.4.07-7.62-4.23-7.23-9-7.13.09-9.93-8.4-9-12.36a17.64,17.64,0,0,1-3.4-6.71,16.3,16.3,0,0,1,.21-9.62c-3.7-1.12-3.41-8.37-2.8-10.64a1.43,1.43,0,0,1-.29,0c-2.12,0-3.5-3.35-4.08-7.72-.81-6.07.48-14.78,2.92-18.62l-.3-.25c-.41-.4-.34-.62-.76-1.41,1.09-.19,2.2-.38,3.33-.56,1.71-.27,3.46-.53,5.27-.77l2-.25,3.62-.41.27,0,.66-.07a14.66,14.66,0,0,1-10.57,5h-.09c2.25,2.93,2.93,12,1.8,18.43A15.24,15.24,0,0,1,42.86,104c.89,0,2.74.45,5.72,3.33a34.83,34.83,0,0,1,10.75-7.08,21.56,21.56,0,0,1,7.91-1.56,14.36,14.36,0,0,1,7.16,1.93,3.66,3.66,0,0,1,2,2.84v1.75c0,1.37-3,2.64-8.67,2.64a27.34,27.34,0,0,0-4.62.33c-3,.48-5.63,1.56-11,3.51,1.7,2.69,5.66,6,8.65,6,4.27,0,6.13-3.76,11.45-5.15h8.52c5.32,1.39,7.18,5.15,11.45,5.15,3,0,7-3.32,8.64-6-5.4-2-8.07-3-11-3.51a27.34,27.34,0,0,0-4.62-.33c-5.67,0-8.67-1.27-8.67-2.64v-1.75a3.66,3.66,0,0,1,2-2.84,14.34,14.34,0,0,1,7.16-1.93,21.56,21.56,0,0,1,7.91,1.56,34.83,34.83,0,0,1,10.75,7.08c3-2.88,4.83-3.34,5.71-3.33a15.51,15.51,0,0,1-1.56-4.86c-1.13-6.4-.46-15.5,1.8-18.43h-.09a14.62,14.62,0,0,1-10.57-5c6.08.62,11.65,1.45,16.69,2.38a5,5,0,0,1-.91,1.26,3.73,3.73,0,0,1-1.18.78C116.45,83.52,117.27,90.3,116.84,96Z" />
  </g>

  <!-- It seems like this should be   -->
  <path class="hat" d="M144,85.11a3.55,3.55,0,0,1,0,.46,152.51,152.51,0,0,0-27.61-7.51c-5-.93-10.61-1.76-16.69-2.38a230.4,230.4,0,0,0-46.38,0l-.66.07-.27,0-2,.22-1.61.19s0,0,0,0c-3.21.4-6.27.85-9.16,1.34l-1.35.24-1.59.29c-1.4.26-2.76.52-4.08.79l-2.07.44q-4.1.9-7.58,1.83l-1,.27-1,.28-1,.29-1.91.56q-2.79.84-5,1.61l-.46.16c-.7.24-1.35.48-1.95.7l-.57.22-.84.32-.11,0c0-.15,0-.31,0-.46a5.18,5.18,0,0,1,.13-1.17c.68-3,3.94-5.89,8.82-8.42,6-3.13,14.57-5.71,23.75-7.24C63,22.34,74.24,0,76.48,0S90,22.34,111.3,68.28C128.85,71.21,144,78,144,85.11Z" />
</svg>
