<?xml version="1.0" encoding="UTF-8" standalone="no"?>
<svg
   xmlns:svg="http://www.w3.org/2000/svg"
   xmlns="http://www.w3.org/2000/svg"
   id="svg3795"
   version="1.1"
   viewBox="0 0 144 161.92">
  <defs
     id="defs3759">
    <style
       id="style3757">
      .hat, .staff-tip-1, .robe {fill:#4289c1;}
      .staff {fill:#d99e82;}
      .face, .hand {fill:#ffdc5d;}
      .staff-tip-2 {fill:#b0f0ff;}
      .nose, .mouth {fill:#c1694f;}
      .eye {fill:#662113;}
      .beard {fill:#e6e7e8;}
    </style>
  </defs>
  <title
     id="title3761">wizard</title>
  <g
     id="g3773"
     class="staff">
    <!-- Convert this into a circle   -->
    <path
       id="path3763"
       d="M27.05,26.94A13.53,13.53,0,1,1,13.52,13.41,13.5,13.5,0,0,1,27.05,26.94Z"
       class="staff-tip-1" />
    <circle
       id="circle3765"
       r="6.74"
       cy="24.81"
       cx="11.27"
       class="staff-tip-2" />
    <!-- Merge these into one path. Assume the "hand" will cover -->
    <path
       id="path3767"
       d="M17.91,93.39v33a21.82,21.82,0,0,0-4.23-.38,24.49,24.49,0,0,0-4.59.41V86.17C9.71,88.62,12.48,91.15,17.91,93.39Z"
       class="staff-mid" />
    <path
       id="path3769"
       d="m 22.17,37.33 -4.26,16.13 v 29.06 q -2.79,0.84 -5,1.61 l -0.46,0.16 c -0.7,0.24 -1.35,0.48 -1.95,0.7 L 9.93,85.21 9.09,85.53 V 53.46 L 4.82,37.28 a 13.5,13.5 0 0 0 17.35,0 z"
       class="staff-top" />
    <path
       id="path3771"
       d="M17.91,152v9.9H9.09V152a11.58,11.58,0,0,0,4.4.86A11.76,11.76,0,0,0,17.91,152Z"
       class="staff-bottom" />
  </g>
  <!-- Simplify this path - it's just a rounded rectangle!  -->
  <path
     style="fill:#4289c1"
     id="path3775"
     d="M 139.45,161.92 H 17.91 V 152 c 5.35,-2.16 9.2,-8.09 9.2,-14.52 0.08675,-2.37426 -0.544007,-4.71956 -1.81,-6.73 5.53,-3.57 12.15,-4.68 18,-4.77 13.7,28.94 53.7,28.94 66.37,0.06 13.67,0.18 31.65,5.96 29.78,35.88 z"
     class="robe" />
  <g
     id="g3791"
     class="face">
    <!-- Simplify this path! The face path is needlessly complicated since it is covered by the beard. Could be a simple rectangle plus two ears. -->
    <path
       style="fill:#ffdc5d;stroke-width:0.98493469"
       id="path3777"
       d="M 115.27847,96.77966 C 109.18363,115.40901 110.96765,122.6373 96,127.92 c -43,9 -51.935706,-13.27688 -58,-31.000002 -2.87,-2.551354 -5.75,-5.812846 -5.75,-10.100672 -0.669698,-6.252657 6.21049,-9.277051 9.32,-9.759169 18.952882,-2.890295 41.109002,-3.067992 58.2,-1.455148 11.69954,0.715236 20.23,4.314989 21.23,9.314989 0,6 -4.40344,8.246742 -5.72153,11.859662 z"
       class="face" />
    <path
       style="fill:#c1694f;stroke-width:1.39859366"
       id="path3783-5"
       d="m 91,110.92 a 6.1420419,3.14 0 0 1 -6.200724,3.14 H 70.91122 a 6.1616025,3.15 0 1 1 0,-6.29 H 84.799276 A 6.1420419,3.14 0 0 1 91,110.92 Z"
       class="nose" />
    <path
       id="path3779"
       d="M27.11,137.5c0,6.43-3.85,12.36-9.2,14.52a11.76,11.76,0,0,1-4.42.87,11.58,11.58,0,0,1-4.4-.86,14.38,14.38,0,0,1-7.74-8.38,19.19,19.19,0,0,1-1.26-6.93c0-6.39,3.92-9.32,9-10.31a24.49,24.49,0,0,1,4.59-.41,21.82,21.82,0,0,1,4.23.38,11,11,0,0,1,7.39,4.39A11.82,11.82,0,0,1,27.11,137.5Z"
       class="hand" />
    <path
       id="path3783"
       d="M83.17,94.72A3.14,3.14,0,0,1,80,97.86h-7.1a3.15,3.15,0,1,1,0-6.29H80A3.14,3.14,0,0,1,83.17,94.72Z"
       class="nose" />
    <path
       id="path3785"
       d="M63,84.28v4.21a4.59,4.59,0,0,1-9.17,0V84.28a4.59,4.59,0,1,1,9.17,0Z"
       class="eye" />
    <path
       id="path3787"
       d="M99.12,84.28v4.21a4.59,4.59,0,0,1-9.18,0V84.28a4.59,4.59,0,1,1,9.18,0Z"
       class="eye" />
    <path
       style="fill:#e6e7e8"
       id="path3789"
       d="m 117.11,95.379974 c 0,0.69 -0.12,1.36 -0.21,2 -0.58,4.370016 -2,7.720026 -4.08,7.720026 -0.0964,0.01 -0.19358,0.01 -0.29,0 0.6,2.27 0.89,9.52 -2.8,10.64 1.03753,3.11273 1.10727,6.46684 0.2,9.62 -0.62966,2.45618 -1.78644,4.74585 -3.39,6.71 0.16437,0.76165 0.21826,1.543 0.16,2.32 0,0.16 0,0.32 -0.05,0.48 -0.05,0.16 -0.07,0.57 -0.12,0.87 -0.05,0.3 -0.07,0.37 -0.12,0.56 0.006,0.0264 0.006,0.0536 0,0.08 -0.0393,0.20349 -0.0927,0.40398 -0.16,0.6 -0.21434,0.75212 -0.492,1.48474 -0.83,2.19 -0.09,0.18 -0.19,0.36 -0.29,0.53 -0.19584,0.35288 -0.37728,0.63162 -0.6,0.98 l -0.29,0.39 c -0.1,0.13 -0.2,0.26 -0.31,0.38 l -0.21,0.24 c -0.15,0.17 -0.3,0.33 -0.46,0.48 -0.53041,0.51191 -1.12545,0.95231 -1.77,1.31 l -0.36,0.18 c -0.75241,0.36594 -1.55983,0.6058 -2.39,0.71 h -0.48 -0.55 -0.13 c 0.39,4.74 -1.84,9 -7.23,9 -1.544233,-0.0559 -3.069835,-0.35633 -4.52,-0.89 -4.714063,5.66859 -13.415937,5.66859 -18.13,0 -1.44672,0.53361 -2.969023,0.83402 -4.51,0.89 -5.4,0.07 -7.62,-4.23 -7.23,-9 -7.13,0.09 -9.93,-8.4 -9,-12.36 -1.60259,-1.9662 -2.762287,-4.25489 -3.4,-6.71 -0.899647,-3.15474 -0.826457,-6.50753 0.21,-9.62 -3.7,-1.12 -3.41,-8.37 -2.8,-10.64 -0.09642,0.01 -0.193583,0.01 -0.29,0 -2.12,0 -3.5,-3.35001 -4.08,-7.720026 -0.81,-6.07 0.48,-14.779998 2.92,-18.619994 l -0.3,-0.25 c -0.41,-0.4 -0.34,-0.62 -0.76,-1.41 1.09,-0.19 2.2,-0.38 3.33,-0.56 1.71,-0.27 3.46,-0.53 5.27,-0.77 l 2,-0.25 3.62,-0.41 h 0.27 l 0.66,-0.07 c -2.677414,3.060468 -6.505708,4.871396 -10.57,4.999996 h -0.09 c 2.25,2.93 2.93,11.999998 1.8,18.430008 -0.249729,1.737606 -0.797789,3.419006 -1.62,4.970016 0.89,0 2.74,0.45 5.72,3.33 3.112335,-3.00739 6.757912,-5.4084 10.75,-7.080014 2.515119,-1.012752 5.198697,-1.542002 7.91,-1.560002 2.514479,0.005 4.983471,0.6709 7.16,1.930002 1.102038,0.549874 1.85363,1.617134 2,2.840014 v 1.75 c 0,1.37 -3,2.64 -8.67,2.64 -1.546562,-0.0209 -3.092107,0.0895 -4.62,0.33 -3,0.48 -5.63,1.56 -11,3.51 1.7,2.69 5.66,6 8.65,6 4.27,0 6.13,-3.76 11.45,-5.15 H 81 c 5.32,1.39 7.18,5.15 11.45,5.15 3,0 7,-3.32 8.64,-6 -5.4,-2 -8.07,-3 -11,-3.51 -1.527893,-0.24049 -3.073438,-0.35088 -4.62,-0.33 -5.67,0 -8.67,-1.27 -8.67,-2.64 v -1.75 c 0.14637,-1.22288 0.897962,-2.29014 2,-2.840014 2.176166,-1.259982 4.645396,-1.925562 7.16,-1.930002 2.711303,0.018 5.394881,0.54725 7.91,1.560002 3.992088,1.671614 7.63767,4.072624 10.75,7.080014 3,-2.88 4.83,-3.34 5.71,-3.33 -0.78483,-1.52274 -1.31196,-3.16498 -1.56,-4.860016 -1.13,-6.40001 -0.46,-15.500008 1.8,-18.430008 h -0.09 c -4.06545,-0.1238 -7.89557,-1.935584 -10.57,-4.999996 6.08,0.62 11.65,1.45 16.69,2.38 -0.2358,0.464866 -0.54284,0.890001 -0.91,1.26 -0.33998,0.332886 -0.74052,0.597646 -1.18,0.779996 2.21,3.39 3.03,10.169998 2.6,15.869998 z"
       class="beard" />
  </g>
  <!-- It seems like this should be   -->
  <path
     style="fill:#4289c1"
     id="path3793"
     d="m 144,85.11 c 0.01,0.153172 0.01,0.306828 0,0.46 -8.94765,-3.363051 -18.19165,-5.877447 -27.61,-7.51 -5,-0.93 -10.61,-1.76 -16.69,-2.38 -18.583655,-1.17904 -34.472398,-1.461021 -50.92,0.48 v 0 c -13.729801,3.048398 -26.65317,4.626434 -38.15,8.8 L 10.06,85.18 9.22,85.5 H 9.11 v -0.46 c -0.00127,-0.393673 0.042348,-0.786207 0.13,-1.17 0.68,-3 3.94,-5.89 8.82,-8.42 6,-3.13 14.57,-5.71 23.75,-7.24 C 63,22.34 74.24,0 76.48,0 78.72,0 90,22.34 111.3,68.28 128.85,71.21 144,78 144,85.11 Z"
     class="hat" />
</svg>
